<svg width="44" height="42" viewBox="0 0 44 42" fill="none" xmlns="http://www.w3.org/2000/svg">
<path d="M31.0475 16.7475L30.3325 12.8625C30.0025 10.3425 28.0775 8.5575 25.6575 8.5575H18.2875C15.9225 8.5575 13.9975 10.3425 13.6675 12.81L12.9525 16.7475C11.3575 17.43 10.3125 18.9525 10.3125 20.685V24.4125C10.3125 26.25 11.5225 27.825 13.2275 28.455V30.1875C13.2275 31.9725 14.7675 33.4425 16.6375 33.4425C18.5075 33.4425 20.0475 31.9725 20.0475 30.1875V28.7175H23.8425V30.1875C23.8425 31.9725 25.3825 33.4425 27.2525 33.4425C29.1225 33.4425 30.6625 31.9725 30.6625 30.1875V28.455C32.3675 27.825 33.5775 26.25 33.5775 24.4125V20.685C33.6325 18.9525 32.5875 17.43 31.0475 16.7475ZM18.2875 10.7625H25.6575C27.0875 10.7625 27.8575 11.97 28.0225 13.23L28.6275 16.38H15.3175L15.9225 13.1775C16.0875 11.97 16.8575 10.7625 18.2875 10.7625ZM17.7925 30.135C17.7925 30.7125 17.2975 31.2375 16.6375 31.2375C16.0325 31.2375 15.4825 30.765 15.4825 30.135V28.665H17.7375V30.135H17.7925ZM27.3075 31.2375C26.7025 31.2375 26.1525 30.765 26.1525 30.135V28.665H28.4625V30.135C28.4625 30.765 27.9675 31.2375 27.3075 31.2375ZM31.3775 24.36C31.3775 25.5675 30.3875 26.5125 29.1225 26.5125H14.8775C13.6125 26.5125 12.6225 25.5675 12.6225 24.36V20.6325C12.6225 19.425 13.6125 18.48 14.8775 18.48H29.1225C30.3875 18.48 31.3775 19.425 31.3775 20.6325V24.36ZM17.2975 22.995C17.2975 23.604 16.7805 24.0975 16.1425 24.0975C15.5045 24.0975 14.9875 23.604 14.9875 22.995C14.9875 22.386 15.5045 21.8925 16.1425 21.8925C16.7805 21.8925 17.2975 22.386 17.2975 22.995ZM28.9575 22.995C28.9575 23.604 28.4405 24.0975 27.8025 24.0975C27.1645 24.0975 26.6475 23.604 26.6475 22.995C26.6475 22.386 27.1645 21.8925 27.8025 21.8925C28.4405 21.8925 28.9575 22.386 28.9575 22.995Z" fill="#ED1C24"/>
</svg>
