<svg width="30" height="30" viewBox="0 0 30 30" fill="none" xmlns="http://www.w3.org/2000/svg">
<path d="M12.8666 17.1387C12.9544 17.2266 13.0038 17.3458 13.0038 17.47C13.0038 17.5943 12.9544 17.7135 12.8666 17.8014L7.59023 23.0783C7.54668 23.1218 7.49499 23.1563 7.4381 23.1799C7.38121 23.2034 7.32024 23.2155 7.25868 23.2155C7.13434 23.2154 7.01512 23.166 6.92725 23.078C6.83937 22.9901 6.79003 22.8708 6.79008 22.7465C6.79014 22.6221 6.83958 22.5029 6.92754 22.415L12.2039 17.1387C12.2918 17.0508 12.411 17.0015 12.5353 17.0015C12.6595 17.0015 12.7787 17.0508 12.8666 17.1387ZM25.0975 22.7637C25.0737 22.8411 25.0302 22.9111 24.9713 22.9667C24.9124 23.0223 24.8401 23.0618 24.7614 23.0811C24.6827 23.1005 24.6004 23.0991 24.5224 23.0772C24.4444 23.0552 24.3734 23.0134 24.3164 22.9559L22.7256 21.365L21.8613 22.2299L23.4527 23.8219C23.5098 23.8791 23.5512 23.9501 23.5727 24.028C23.5943 24.1059 23.5953 24.1881 23.5757 24.2665C23.5561 24.3449 23.5166 24.417 23.461 24.4756C23.4053 24.5342 23.3355 24.5775 23.2582 24.6012C22.9717 24.6879 22.6739 24.7316 22.3746 24.7307C21.4582 24.7307 20.5131 24.3381 19.8018 23.6268C19.1215 22.9465 18.7266 22.0582 18.699 21.1623L15.6299 18.0926C15.5919 18.0715 15.557 18.0453 15.5262 18.0147L15.1998 17.6883C15.0766 18.0959 14.8541 18.4666 14.5523 18.767L8.84121 24.4781C8.38772 24.9369 7.77663 25.2059 7.13203 25.2305H7.04414C6.74482 25.2335 6.4479 25.1769 6.17066 25.064C5.89342 24.9512 5.6414 24.7843 5.4293 24.573C4.51582 23.6596 4.55918 22.1291 5.52656 21.1617L11.2377 15.4506C11.5381 15.1491 11.9085 14.9266 12.3158 14.8031L11.9906 14.4779C11.96 14.4471 11.9337 14.4122 11.9127 14.3742L8.83359 11.2945C7.93828 11.2676 7.05059 10.8727 6.37266 10.1924C5.42871 9.24727 5.04609 7.89141 5.39766 6.73535C5.42128 6.65795 5.46454 6.58798 5.52322 6.53226C5.58191 6.47654 5.65402 6.43696 5.73254 6.41737C5.81106 6.39779 5.89332 6.39886 5.9713 6.4205C6.04928 6.44213 6.12033 6.48358 6.17754 6.54082L7.76894 8.13164L8.63379 7.26621L7.04004 5.67832C6.9828 5.62111 6.94135 5.55006 6.91971 5.47208C6.89808 5.3941 6.897 5.31185 6.91659 5.23333C6.93617 5.15481 6.97575 5.08269 7.03148 5.02401C7.0872 4.96532 7.15717 4.92206 7.23457 4.89844C8.38945 4.54688 9.74648 4.92832 10.6916 5.87285C11.3725 6.55313 11.7674 7.44141 11.7949 8.33789L15.8965 12.4395L22.2135 6.11836C22.2459 6.0851 22.2832 6.05703 22.3242 6.03516L24.5098 4.86328C24.5983 4.8162 24.6996 4.79875 24.7988 4.8135C24.898 4.82825 24.9898 4.87442 25.0609 4.94523C25.1319 5.01605 25.1783 5.10776 25.1933 5.20692C25.2083 5.30607 25.1912 5.40742 25.1443 5.4961L23.9678 7.68164C23.9461 7.72195 23.9187 7.75886 23.8863 7.79121L17.567 14.1105L21.6598 18.2033C22.5551 18.2303 23.4422 18.6252 24.1207 19.3055C25.067 20.2506 25.449 21.607 25.0975 22.7613V22.7637ZM16.5662 16.3113L13.6951 13.4402L12.9984 14.1363L15.8695 17.0074L16.5662 16.3113ZM15.6193 14.0379L15.9668 14.3854L23.1738 7.17832L23.5781 6.42715L22.8264 6.83086L15.6193 14.0379ZM9.35918 10.4965L12.3352 13.4725L13.3629 12.4447C13.4508 12.3569 13.57 12.3075 13.6942 12.3075C13.8185 12.3075 13.9377 12.3569 14.0256 12.4447L14.9561 13.3752L15.2309 13.1004L10.9939 8.86348C10.9485 8.81805 10.9129 8.76377 10.8893 8.704C10.8657 8.64422 10.8547 8.58024 10.8568 8.51602C10.8809 7.8082 10.5791 7.08633 10.0283 6.53614C9.59385 6.09358 9.02491 5.80756 8.41055 5.72285L9.62578 6.93867C9.71362 7.02657 9.76297 7.14575 9.76297 7.27002C9.76297 7.39429 9.71362 7.51347 9.62578 7.60137L8.09766 9.12949C8.00976 9.21734 7.89058 9.26668 7.76631 9.26668C7.64204 9.26668 7.52286 9.21734 7.43496 9.12949L6.22031 7.91485C6.30527 8.5283 6.59032 9.09656 7.03125 9.53145C7.58203 10.0816 8.30332 10.3834 9.00996 10.3594H9.02637C9.08814 10.3592 9.14934 10.3712 9.20646 10.3947C9.26357 10.4182 9.31547 10.4528 9.35918 10.4965ZM14.3637 16.8521L13.152 15.641C12.9217 15.6243 12.6905 15.6579 12.4745 15.7394C12.2585 15.821 12.0628 15.9486 11.901 16.1133L6.18926 21.8262C5.5875 22.4279 5.54473 23.3637 6.09258 23.9121C6.22462 24.042 6.38226 24.143 6.55547 24.2087C6.72867 24.2744 6.91365 24.3033 7.09863 24.2936C7.50606 24.277 7.89194 24.1061 8.17793 23.8154L13.8896 18.1055C14.1803 17.8195 14.3512 17.4336 14.3678 17.0262C14.37 16.9681 14.3686 16.91 14.3637 16.8521ZM24.2725 21.5848C24.1875 20.9711 23.9017 20.4029 23.4598 19.9688C22.909 19.418 22.1877 19.1168 21.4816 19.1408C21.4174 19.143 21.3534 19.132 21.2937 19.1084C21.2339 19.0848 21.1796 19.0492 21.1342 19.0037L16.9043 14.7738L16.6295 15.0486L17.5605 15.9803C17.6484 16.0682 17.6977 16.1874 17.6977 16.3116C17.6977 16.4359 17.6484 16.5551 17.5605 16.643L16.5334 17.6701L19.4988 20.6367C19.5442 20.6821 19.5798 20.7363 19.6034 20.7959C19.627 20.8556 19.638 20.9195 19.6359 20.9836C19.6125 21.6914 19.9143 22.4133 20.4645 22.9641C20.8991 23.4063 21.468 23.692 22.0822 23.7768L20.867 22.5615C20.8234 22.518 20.7888 22.4663 20.7652 22.4094C20.7417 22.3525 20.7295 22.2915 20.7295 22.2299C20.7295 22.1683 20.7417 22.1073 20.7652 22.0504C20.7888 21.9935 20.8234 21.9418 20.867 21.8982L22.3951 20.3701C22.483 20.2823 22.6022 20.2329 22.7265 20.2329C22.8507 20.2329 22.9699 20.2823 23.0578 20.3701L24.2725 21.5848Z" fill="#ED1C24" stroke="#ED1C24" stroke-width="0.448"/>
</svg>
