<svg width="30" height="30" viewBox="0 0 30 30" fill="none" xmlns="http://www.w3.org/2000/svg">
<path d="M15 3.28125C8.26781 3.28125 2.8125 8.7375 2.8125 15.4688C2.8125 22.2 8.26781 27.6562 15 27.6562C21.7303 27.6562 27.1875 22.2 27.1875 15.4688C27.1875 8.7375 21.7313 3.28125 15 3.28125ZM14.9016 25.3378C9.465 25.3378 5.05781 20.9306 5.05781 15.4941C5.05781 10.0575 9.465 5.65031 14.9016 5.65031C20.3372 5.65031 24.7453 10.0575 24.7453 15.4941C24.7453 20.9306 20.3372 25.3378 14.9016 25.3378ZM17.7469 16.0603H14.9531V11.3428C14.9531 10.8309 14.5378 10.4147 14.0259 10.4147C13.5141 10.4147 13.0978 10.83 13.0978 11.3428V16.9875C13.0978 17.5003 13.5131 17.9147 14.0259 17.9147H17.7469C18.2597 17.9147 18.675 17.5003 18.675 16.9875C18.675 16.4756 18.2597 16.0603 17.7469 16.0603Z" fill="#ED1C24"/>
</svg>
