<svg width="30" height="30" viewBox="0 0 30 30" fill="none" xmlns="http://www.w3.org/2000/svg">
<g clip-path="url(#clip0_8_94)">
<path d="M15 20C15.9889 20 16.9556 19.7068 17.7779 19.1573C18.6001 18.6079 19.241 17.827 19.6194 16.9134C19.9978 15.9998 20.0969 14.9945 19.9039 14.0245C19.711 13.0546 19.2348 12.1637 18.5355 11.4645C17.8363 10.7652 16.9454 10.289 15.9755 10.0961C15.0056 9.90315 14.0002 10.0022 13.0866 10.3806C12.173 10.759 11.3921 11.3999 10.8427 12.2221C10.2933 13.0444 10 14.0111 10 15C10 16.3261 10.5268 17.5979 11.4645 18.5355C12.4022 19.4732 13.6739 20 15 20ZM15 12.5C15.4945 12.5 15.9778 12.6466 16.3889 12.9213C16.8001 13.196 17.1205 13.5865 17.3097 14.0433C17.4989 14.5001 17.5484 15.0028 17.452 15.4877C17.3555 15.9727 17.1174 16.4181 16.7678 16.7678C16.4181 17.1174 15.9727 17.3555 15.4877 17.452C15.0028 17.5484 14.5001 17.4989 14.0433 17.3097C13.5865 17.1205 13.196 16.8 12.9213 16.3889C12.6466 15.9778 12.5 15.4945 12.5 15C12.5 14.337 12.7634 13.7011 13.2322 13.2322C13.7011 12.7634 14.337 12.5 15 12.5ZM4.37501 16.0962L3.12501 16.82C2.8406 16.9841 2.59129 17.2025 2.39132 17.4629C2.19134 17.7233 2.04463 18.0206 1.95954 18.3377C1.87446 18.6548 1.85268 18.9856 1.89544 19.3111C1.9382 19.6367 2.04466 19.9506 2.20876 20.235L4.07001 23.4575C4.23396 23.7423 4.45247 23.9921 4.71303 24.1924C4.97359 24.3927 5.27109 24.5397 5.58851 24.6249C5.90593 24.7101 6.23704 24.7319 6.56289 24.689C6.88874 24.6461 7.20294 24.5394 7.48751 24.375L8.75001 23.645C8.94268 23.5362 9.16063 23.4803 9.38185 23.4827C9.60308 23.4851 9.81976 23.5458 10.01 23.6588C10.1979 23.7675 10.3539 23.9237 10.4625 24.1117C10.5711 24.2997 10.6284 24.5129 10.6288 24.73V26.25C10.6288 26.913 10.8921 27.5489 11.361 28.0178C11.8298 28.4866 12.4657 28.75 13.1288 28.75H16.8788C17.5418 28.75 18.1777 28.4866 18.6465 28.0178C19.1154 27.5489 19.3788 26.913 19.3788 26.25V24.7275C19.3821 24.5094 19.4419 24.2959 19.5524 24.1078C19.6629 23.9197 19.8203 23.7635 20.0092 23.6545C20.1982 23.5454 20.4121 23.4872 20.6303 23.4855C20.8484 23.4839 21.0632 23.5388 21.2538 23.645L22.515 24.3725C23.0892 24.704 23.7716 24.7938 24.412 24.6222C25.0524 24.4507 25.5985 24.0317 25.93 23.4575L27.79 20.235C27.9541 19.9506 28.0606 19.6367 28.1033 19.3111C28.1461 18.9856 28.1243 18.6548 28.0392 18.3377C27.9541 18.0206 27.8074 17.7233 27.6074 17.4629C27.4075 17.2025 27.1582 16.9841 26.8738 16.82L25.6238 16.0962C25.4299 15.9833 25.2697 15.8207 25.1598 15.6251C25.05 15.4295 24.9943 15.2081 24.9988 14.9838C24.9992 14.7648 25.0572 14.5497 25.1669 14.3602C25.2765 14.1706 25.4341 14.0132 25.6238 13.9038L26.8738 13.18C27.1582 13.0159 27.4075 12.7975 27.6074 12.5371C27.8074 12.2767 27.9541 11.9794 28.0392 11.6623C28.1243 11.3452 28.1461 11.0144 28.1033 10.6889C28.0606 10.3633 27.9541 10.0494 27.79 9.765L25.9275 6.5425C25.7636 6.25799 25.5452 6.00856 25.2848 5.80846C25.0244 5.60836 24.7272 5.46152 24.4101 5.37632C24.0929 5.29112 23.7621 5.26923 23.4366 5.31189C23.111 5.35456 22.797 5.46096 22.5125 5.625L21.25 6.35375C21.0594 6.46036 20.8444 6.5156 20.626 6.51406C20.4077 6.51252 20.1934 6.45426 20.0044 6.34498C19.8153 6.2357 19.6579 6.07915 19.5476 5.8907C19.4372 5.70225 19.3778 5.48836 19.375 5.27V3.75C19.375 3.08696 19.1116 2.45107 18.6428 1.98223C18.1739 1.51339 17.538 1.25 16.875 1.25H13.125C12.462 1.25 11.8261 1.51339 11.3572 1.98223C10.8884 2.45107 10.625 3.08696 10.625 3.75V5.3675C10.625 5.5551 10.5755 5.73937 10.4816 5.90176C10.3877 6.06415 10.2526 6.19892 10.09 6.2925L9.89751 6.40375C9.73482 6.49624 9.55089 6.54486 9.36376 6.54486C9.17662 6.54486 8.99269 6.49624 8.83001 6.40375L7.48751 5.625C7.20314 5.46066 6.88918 5.35396 6.56356 5.31101C6.23794 5.26805 5.90705 5.28968 5.58979 5.37465C5.27254 5.45962 4.97513 5.60628 4.71458 5.80624C4.45402 6.00619 4.23542 6.25553 4.07126 6.54L2.21126 9.76625C1.88004 10.3402 1.79024 11.0221 1.96158 11.6622C2.13291 12.3024 2.55138 12.8483 3.12501 13.18L4.37501 13.9025C4.56871 14.0159 4.72871 14.1789 4.83855 14.3746C4.9484 14.5704 5.00413 14.7918 5.00001 15.0162C5.00033 15.2354 4.94268 15.4507 4.83291 15.6404C4.72315 15.8301 4.56517 15.9873 4.37501 16.0962ZM5.62501 11.7375L4.37501 11.015L6.23751 7.7925L7.58001 8.5675C8.12199 8.87896 8.73616 9.04286 9.36126 9.04286C9.98635 9.04286 10.6005 8.87896 11.1425 8.5675L11.335 8.4575C11.8778 8.14427 12.3288 7.69399 12.643 7.15172C12.9571 6.60944 13.1233 5.99419 13.125 5.3675V3.75H16.875V5.27C16.8776 5.92729 17.0525 6.57242 17.3821 7.14105C17.7118 7.70969 18.1848 8.18197 18.7539 8.5108C19.3231 8.83963 19.9685 9.01352 20.6257 9.01514C21.283 9.01675 21.9293 8.84603 22.5 8.52L23.7588 7.7925L25.625 11.015L24.375 11.7375C23.8058 12.0708 23.3338 12.5472 23.0057 13.1195C22.6777 13.6917 22.5051 14.3398 22.5051 14.9994C22.5051 15.659 22.6777 16.3071 23.0057 16.8793C23.3338 17.4515 23.8058 17.9279 24.375 18.2612L25.625 18.985L23.765 22.2075L22.5 21.48C21.9293 21.154 21.283 20.9832 20.6257 20.9849C19.9685 20.9865 19.3231 21.1604 18.7539 21.4892C18.1848 21.818 17.7118 22.2903 17.3821 22.8589C17.0525 23.4276 16.8776 24.0727 16.875 24.73V26.25H13.125V24.73C13.1232 24.0724 12.9488 23.4268 12.6193 22.8578C12.2898 22.2887 11.8167 21.816 11.2473 21.4871C10.6779 21.1581 10.0322 20.9843 9.3746 20.9831C8.71702 20.9818 8.07062 21.1532 7.50001 21.48L6.24126 22.2075L4.37501 18.985L5.62501 18.2612C6.19418 17.9279 6.66623 17.4515 6.99426 16.8793C7.32229 16.3071 7.49488 15.659 7.49488 14.9994C7.49488 14.3398 7.32229 13.6917 6.99426 13.1195C6.66623 12.5472 6.19418 12.0708 5.62501 11.7375Z" fill="#ED1C24" stroke="#ED1C24" stroke-width="0.00065"/>
</g>
<defs>
<clipPath id="clip0_8_94">
<rect width="30" height="30" fill="white"/>
</clipPath>
</defs>
</svg>
